<svg xmlns="http://www.w3.org/2000/svg" viewBox="0 0 96 96" role="img" aria-label="Docker">
  <defs>
    <linearGradient id="dockerGradient" x1="0" x2="1" y1="0" y2="1">
      <stop offset="0%" stop-color="#0db7ed" />
      <stop offset="100%" stop-color="#2496ed" />
    </linearGradient>
  </defs>
  <rect x="8" y="38" width="14" height="14" rx="2" fill="url(#dockerGradient)" />
  <rect x="24" y="38" width="14" height="14" rx="2" fill="url(#dockerGradient)" />
  <rect x="40" y="38" width="14" height="14" rx="2" fill="url(#dockerGradient)" />
  <rect x="24" y="22" width="14" height="14" rx="2" fill="url(#dockerGradient)" />
  <rect x="40" y="22" width="14" height="14" rx="2" fill="url(#dockerGradient)" />
  <rect x="56" y="38" width="14" height="14" rx="2" fill="url(#dockerGradient)" />
  <path
    d="M18 58h44c10 0 18-6 18-14 0-7-6-12-14-12h-6v8h-8v-8h-8v8h-8v-8h-8v8h-8v-8h-6c-6 0-12 6-12 14 0 7 6 12 14 12z"
    fill="url(#dockerGradient)"
  />
  <circle cx="66" cy="60" r="2" fill="#ffffff" />
</svg>
